<svg xmlns="http://www.w3.org/2000/svg" xmlns:xlink="http://www.w3.org/1999/xlink" width="80" height="80" viewBox="0 0 80 80">
  <defs>
    <clipPath id="clip-path">
      <rect id="logo" width="79.934" height="80" transform="translate(782.25 142.5)" fill="#6a6a6a" stroke="#707070" stroke-width="1"/>
    </clipPath>
  </defs>
  <g id="logo-2" data-name="logo" transform="translate(-782.25 -142.5)">
    <g id="Mask_Group_2" data-name="Mask Group 2" clip-path="url(#clip-path)">
      <g id="logo_application" data-name="logo application" transform="translate(782.25 142.534)">
        <g id="Group_1385" data-name="Group 1385">
          <g id="Group_1382" data-name="Group 1382">
            <path id="Path_5650" data-name="Path 5650" d="M39.965,79.325A39.36,39.36,0,0,1,12.133,12.133,39.36,39.36,0,1,1,67.8,67.8,39.1,39.1,0,0,1,39.965,79.325Z" fill="#ed6b23"/>
            <path id="Path_5651" data-name="Path 5651" d="M39.965,1.21A38.755,38.755,0,1,1,1.21,39.965,38.755,38.755,0,0,1,39.965,1.21m0-1.21A39.976,39.976,0,0,0,24.41,76.79,39.976,39.976,0,0,0,55.523,3.14,39.771,39.771,0,0,0,39.965,0Z" fill="#fff"/>
          </g>
          <g id="Group_1384" data-name="Group 1384">
            <path id="Path_5652" data-name="Path 5652" d="M67.828,46.662h0a1.4,1.4,0,0,1,1.018,1.752,30.173,30.173,0,0,1-57,2.755,1.4,1.4,0,0,1,.311-1.507l.01-.01a1.4,1.4,0,0,1,2.29.482,27.367,27.367,0,0,0,51.706-2.509,1.393,1.393,0,0,1,1.664-.961ZM46.238,13.324A27.374,27.374,0,0,1,65.984,31.848L68.2,29.629A30.173,30.173,0,0,0,29.534,11.587c-9.529,3.467,1.993-1.77,16.7,1.737Z" fill="#fff"/>
            <circle id="Ellipse_13" data-name="Ellipse 13" cx="4.327" cy="4.327" r="4.327" transform="translate(61.658 23.193)" fill="#fff"/>
            <g id="Group_1383" data-name="Group 1383">
              <path id="Path_5653" data-name="Path 5653" d="M29.012,44.17v-5.7a4.035,4.035,0,0,1,4.3-4.051c2.5,0,4.326,1.626,4.326,3.861a3.321,3.321,0,0,1-1.465,2.86,2.444,2.444,0,0,1,1.465,2.25v.785A1.094,1.094,0,0,1,36.486,45.3a1.081,1.081,0,0,1-1.132-1.132v-.479a1.606,1.606,0,0,0-1.742-1.554H31.29V44.17A1.1,1.1,0,0,1,30.142,45.3,1.089,1.089,0,0,1,29.01,44.17Zm4.167-3.861a2.023,2.023,0,0,0,2.134-2.046,1.93,1.93,0,0,0-1.989-2.018,2.078,2.078,0,0,0-2.032,2.221v1.844h1.887Z" fill="#fff"/>
              <path id="Path_5654" data-name="Path 5654" d="M44.225,34.414c2.293,0,3.949,1.234,3.949,2.946a2.43,2.43,0,0,1-1.234,2.1,2.8,2.8,0,0,1,1.713,2.6c0,1.873-1.742,3.237-4.18,3.237s-4.167-1.465-4.167-3.57V37.986a3.616,3.616,0,0,1,3.919-3.57Zm-.188,4.427c1.046,0,1.8-.551,1.8-1.365s-.683-1.32-1.611-1.32a1.7,1.7,0,0,0-1.64,1.828v.857h1.452Zm-1.452,2.889a1.792,1.792,0,0,0,1.887,1.828,1.669,1.669,0,0,0,1.858-1.611,1.786,1.786,0,0,0-1.989-1.64H42.585v1.422Z" fill="#fff"/>
              <path id="Path_5655" data-name="Path 5655" d="M51.483,35.548a1.148,1.148,0,0,1,2.295,0v8.623a1.147,1.147,0,0,1-2.293,0V35.548Z" fill="#fff"/>
              <path id="Path_5656" data-name="Path 5656" d="M59.495,36.389H57.215a.862.862,0,0,1-.9-.93.838.838,0,0,1,.9-.9h6.852a.915.915,0,0,1,0,1.83H61.788v7.78a1.147,1.147,0,0,1-2.293,0Z" fill="#fff"/>
              <path id="Path_5657" data-name="Path 5657" d="M74.345,34.559a.689.689,0,0,1,.726.74,2.771,2.771,0,0,1-.465,1.293L73,39.118h.842a.694.694,0,0,1,.726.755.671.671,0,0,1-.726.726H72.065l-1.728,2.729h3.817a.914.914,0,1,1,0,1.828H67.883a.682.682,0,0,1-.726-.74,2.774,2.774,0,0,1,.449-1.293L69.217,40.6H68.36a.7.7,0,0,1-.726-.755.678.678,0,0,1,.726-.726h1.785l1.742-2.729H68.054a.862.862,0,0,1-.9-.93.838.838,0,0,1,.9-.9H74.34Z" fill="#fff"/>
            </g>
            <path id="Path_5658" data-name="Path 5658" d="M15.2,29.226c6.517,0,11.236,4.659,11.236,11.06S21.718,51.347,15.2,51.347,3.933,46.688,3.933,40.286,8.651,29.226,15.2,29.226Zm0,18.4c3.745,0,6.487-2.86,6.487-7.343s-2.743-7.343-6.487-7.343S8.682,35.8,8.682,40.286,11.425,47.629,15.2,47.629Z" fill="#fff"/>
          </g>
        </g>
      </g>
    </g>
    <path id="Path_5649" data-name="Path 5649" d="M79.933,80" transform="translate(782.317 142.5)" fill="none" stroke="#fff" stroke-width="1"/>
  </g>
</svg>
