<svg xmlns="http://www.w3.org/2000/svg" xmlns:xlink="http://www.w3.org/1999/xlink" width="356.75" height="357" viewBox="0 0 356.75 357">
  <defs>
    <clipPath id="clip-path">
      <rect id="logo" width="356.75" height="357" transform="translate(782.25 142.5)" fill="#6a6a6a" stroke="#707070" stroke-width="1"/>
    </clipPath>
  </defs>
  <g id="logo-2" data-name="logo" transform="translate(-782.25 -142.5)">
    <g id="Mask_Group_1" data-name="Mask Group 1" clip-path="url(#clip-path)">
      <g id="logo_application" data-name="logo application" transform="translate(782.25 142.629)">
        <g id="Group_1381" data-name="Group 1381">
          <g id="Group_1378" data-name="Group 1378">
            <path id="Path_5640" data-name="Path 5640" d="M178.367,354.035A175.667,175.667,0,0,1,54.152,54.152,175.667,175.667,0,1,1,302.583,302.583,174.51,174.51,0,0,1,178.367,354.035Z" fill="none"/>
            <path id="Path_5641" data-name="Path 5641" d="M178.367,5.4A172.968,172.968,0,1,1,5.4,178.367,172.969,172.969,0,0,1,178.367,5.4m0-5.4a178.415,178.415,0,0,0-69.423,342.72A178.417,178.417,0,0,0,247.806,14.014,177.5,177.5,0,0,0,178.367,0Z" fill="#fff"/>
          </g>
          <g id="Group_1380" data-name="Group 1380">
            <path id="Path_5642" data-name="Path 5642" d="M302.721,208.255h0a6.255,6.255,0,0,1,4.543,7.821A134.664,134.664,0,0,1,52.879,228.37a6.235,6.235,0,0,1,1.388-6.726l.046-.046a6.24,6.24,0,0,1,10.22,2.152,122.143,122.143,0,0,0,230.768-11.2,6.216,6.216,0,0,1,7.427-4.288ZM206.365,59.466a122.173,122.173,0,0,1,88.127,82.674l9.9-9.9A134.663,134.663,0,0,0,131.813,51.715c-42.529,15.472,8.893-7.9,74.545,7.751Z" fill="#fff"/>
            <circle id="Ellipse_12" data-name="Ellipse 12" cx="19.313" cy="19.313" r="19.313" transform="translate(275.187 103.514)" fill="#fff"/>
            <g id="Group_1379" data-name="Group 1379">
              <path id="Path_5643" data-name="Path 5643" d="M129.483,197.133v-25.46c0-10.5,8.037-18.079,19.174-18.079s19.305,7.258,19.305,17.23a14.821,14.821,0,0,1-6.54,12.765,10.909,10.909,0,0,1,6.54,10.042v3.5a4.882,4.882,0,0,1-5.121,5.052,4.826,4.826,0,0,1-5.052-5.052V195c0-3.949-3.239-6.934-7.775-6.934H139.649v9.07a4.917,4.917,0,0,1-5.121,5.052,4.86,4.86,0,0,1-5.052-5.052Zm18.6-17.23c5.507,0,9.525-3.826,9.525-9.132a8.614,8.614,0,0,0-8.877-9.009c-5.121,0-9.07,4.15-9.07,9.911v8.23h8.422Z" fill="#fff"/>
              <path id="Path_5644" data-name="Path 5644" d="M197.379,153.594c10.235,0,17.624,5.507,17.624,13.15a10.844,10.844,0,0,1-5.507,9.394,12.517,12.517,0,0,1,7.643,11.6c0,8.361-7.775,14.446-18.657,14.446s-18.6-6.54-18.6-15.935V169.536c0-9.394,7.389-15.935,17.493-15.935Zm-.841,19.76c4.666,0,8.037-2.46,8.037-6.093s-3.047-5.893-7.188-5.893-7.319,3.432-7.319,8.16v3.826h6.479Zm-6.479,12.9c0,4.728,3.5,8.16,8.422,8.16s8.291-2.977,8.291-7.188-3.756-7.32-8.877-7.32H190.06v6.348Z" fill="#fff"/>
              <path id="Path_5645" data-name="Path 5645" d="M229.773,158.653a5.122,5.122,0,0,1,10.243,0V197.14a5.118,5.118,0,0,1-10.235,0V158.653Z" fill="#fff"/>
              <path id="Path_5646" data-name="Path 5646" d="M265.53,162.409H255.357a3.845,3.845,0,0,1-4.018-4.15,3.742,3.742,0,0,1,4.018-4.018h30.581a4.084,4.084,0,0,1,0,8.168H275.765v34.723a5.118,5.118,0,0,1-10.235,0Z" fill="#fff"/>
              <path id="Path_5647" data-name="Path 5647" d="M331.807,154.241a3.077,3.077,0,0,1,3.239,3.3,12.368,12.368,0,0,1-2.075,5.769l-7.188,11.276h3.756a3.1,3.1,0,0,1,3.239,3.371,3,3,0,0,1-3.239,3.239h-7.906l-7.713,12.179h17.038a4.08,4.08,0,1,1,0,8.16h-27.99a3.046,3.046,0,0,1-3.239-3.3,12.382,12.382,0,0,1,2.005-5.769l7.188-11.276H305.1a3.129,3.129,0,0,1-3.239-3.371,3.025,3.025,0,0,1,3.239-3.239h7.967l7.775-12.179H303.732a3.845,3.845,0,0,1-4.018-4.15,3.742,3.742,0,0,1,4.018-4.018h28.052Z" fill="#fff"/>
            </g>
            <path id="Path_5648" data-name="Path 5648" d="M67.834,130.44c29.085,0,50.149,20.794,50.149,49.362s-21.056,49.362-50.149,49.362S17.554,208.37,17.554,179.8s21.056-49.362,50.28-49.362Zm0,82.134c16.714,0,28.954-12.765,28.954-32.772S84.548,147.03,67.834,147.03,38.749,159.795,38.749,179.8,50.99,212.574,67.834,212.574Z" fill="#fff"/>
          </g>
        </g>
      </g>
    </g>
  </g>
</svg>
